:SAMPLES-PER-SECOND 30
:FULLY-SPECIFIED
:DEGREES
50
root  49.3664 39.9288 -27.6639 -151.962 -84.4353 150.133
RightUpLeg  -21.0906 -4.25329 -6.44574
RightLeg  53.2114 -3.54994 -5.46742
RightFoot  4.34989 -0.668284 5.05243
RightToes  2.91037e-010 0 -3.6325e-017
Spine  8.42999 -0.213668 -0.685995
Spine1  7.58977 0.324301 -2.97296
HEad  -9.98169 4.21638 -4.27107
LeftShoulder1  7.92722 -11.3485 -46.5539
LeftArm  -9.21161 6.80327 -28.5475
LeftForeArm  21.693 -19.5971 -3.90962
LeftHand  -0.244104 0.0205437 5.32207
RightShoulder  6.75376 10.2706 42.7126
RightArm  4.62238 -17.6471 33.8372
RightForeArm  13.4854 10.4127 8.44817
RightHand  -0.816674 0.972412 -14.9835
LeftUpLeg  -1.97637 5.66611 -3.61421
LeftLeg  11.8678 8.30031 -2.65479
LeftFoot  -9.30499 0.0254939 1.71323
LeftToes  -2.38291e-010 7.29328e-011 -2.49822e-011
51
root  48.146 39.911 -27.6437 -153.539 -84.8677 151.387
RightUpLeg  -23.0276 -6.15229 -5.04635
RightLeg  44.9614 -4.12131 -4.71623
RightFoot  2.72714 -0.545869 4.58747
RightToes  2.91037e-010 0 -3.6325e-017
Spine  9.4 -0.629285 -0.973243
Spine1  7.15086 -0.335527 -2.21026
HEad  -10.5314 4.20934 -4.06324
LeftShoulder1  7.93443 -11.3865 -46.4757
LeftArm  -8.03054 4.1744 -28.7198
LeftForeArm  21.6565 -22.5851 -3.81659
LeftHand  -0.244104 0.0205437 5.32207
RightShoulder  6.66432 10.1322 42.5656
RightArm  3.70674 -20.6133 33.1164
RightForeArm  12.3052 11.0158 8.13928
RightHand  -0.757406 0.800227 -14.2889
LeftUpLeg  0.880659 4.98608 -3.05172
LeftLeg  11.0504 8.43195 -3.28571
LeftFoot  -11.0792 0.0622899 1.38398
LeftToes  -2.38291e-010 7.29328e-011 -2.49822e-011
52
root  46.8486 39.7307 -27.6697 -149.702 -84.9791 147.341
RightUpLeg  -23.5943 -8.8018 -3.94918
RightLeg  33.6839 -3.54097 -2.90391
RightFoot  1.83133 -0.613878 5.4131
RightToes  2.91037e-010 0 -3.6325e-017
Spine  9.73768 -0.921188 -1.9319
Spine1  7.14377 -0.85387 -1.5828
HEad  -11.0876 4.13576 -3.84673
LeftShoulder1  7.91916 -11.4255 -46.2596
LeftArm  -7.49663 1.34832 -28.7591
LeftForeArm  22.7528 -24.9088 -4.1146
LeftHand  -0.244104 0.0205437 5.32207
RightShoulder  6.573 10.0029 42.3718
RightArm  1.51223 -22.4874 32.5506
RightForeArm  13.0413 10.334 7.92271
RightHand  -0.787972 1.019 -14.3623
LeftUpLeg  3.26656 4.67516 -3.15106
LeftLeg  11.1933 8.37661 -3.57878
LeftFoot  -13.4281 0.0991938 0.9822
LeftToes  -2.38291e-010 7.29328e-011 -2.49822e-011
53
root  45.4664 39.5344 -27.7119 -144.782 -84.9949 142.421
RightUpLeg  -23.0736 -11.6524 -2.82413
RightLeg  20.115 -2.06919 -0.631269
RightFoot  2.18318 -0.708671 6.09431
RightToes  2.91037e-010 0 -3.6325e-017
Spine  9.50445 -1.16214 -2.7309
Spine1  7.34332 -1.28984 -0.80458
HEad  -11.4968 3.98096 -3.64545
LeftShoulder1  7.888 -11.4322 -46.0509
LeftArm  -6.79416 -1.34423 -28.66
LeftForeArm  23.9196 -26.5752 -4.42823
LeftHand  -0.244104 0.0205437 5.32207
RightShoulder  6.44822 9.8605 41.9852
RightArm  -1.37175 -23.4707 32.2816
RightForeArm  14.8474 8.44559 7.65422
RightHand  -0.814503 1.14852 -14.5571
LeftUpLeg  5.83942 4.62686 -3.37227
LeftLeg  10.7037 8.27641 -3.86692
LeftFoot  -15.105 0.130066 1.18018
LeftToes  -2.38291e-010 7.29328e-011 -2.49822e-011
54
root  44.0097 39.3251 -27.7629 -140.557 -85.0229 138.257
RightUpLeg  -21.5197 -10.5978 -3.43977
RightLeg  6.07979 -3.45449 2.37105
RightFoot  2.11386 -0.753124 6.50811
RightToes  2.91037e-010 0 -3.6325e-017
Spine  8.99581 -1.35562 -2.98963
Spine1  7.57416 -1.6184 -0.116543
HEad  -11.555 3.7221 -3.44599
LeftShoulder1  7.88437 -11.4615 -45.9365
LeftArm  -5.77304 -3.63269 -28.4685
LeftForeArm  24.679 -27.5371 -4.59994
LeftHand  -0.244104 0.0205437 5.32207
RightShoulder  6.33144 9.7341 41.5918
RightArm  -3.69259 -24.0559 32.0706
RightForeArm  16.479 6.35481 7.06999
RightHand  -0.790018 1.07093 -14.2876
LeftUpLeg  8.68864 4.84014 -3.41775
LeftLeg  9.77724 7.86307 -4.25038
LeftFoot  -16.6057 0.173842 1.61814
LeftToes  -2.38291e-010 7.29328e-011 -2.49822e-011
55
root  42.4327 38.9675 -27.8522 -135.463 -84.943 133.057
RightUpLeg  -20.2355 -6.36408 -5.55722
RightLeg  -3.90565 -6.98314 5.00329
RightFoot  0.330303 -0.759574 7.45298
RightToes  2.91037e-010 0 -3.6325e-017
Spine  8.34375 -1.50453 -3.15567
Spine1  7.71452 -1.79928 0.211582
HEad  -11.2379 3.40744 -3.3112
LeftShoulder1  7.89969 -11.523 -45.8344
LeftArm  -4.70866 -5.3797 -28.393
LeftForeArm  25.0455 -27.8426 -4.64855
LeftHand  -0.244104 0.0205437 5.32207
RightShoulder  6.25858 9.6619 41.3191
RightArm  -5.47446 -24.4428 31.7295
RightForeArm  17.5462 4.72334 6.35202
RightHand  -0.748707 0.953312 -13.7953
LeftUpLeg  11.4962 5.18806 -3.42063
LeftLeg  9.86831 7.08885 -4.50216
LeftFoot  -19.0171 0.206717 1.40057
LeftToes  -2.38291e-010 7.29328e-011 -2.49822e-011
56
root  40.7952 38.5669 -27.976 -132.283 -85.008 129.739
RightUpLeg  -21.2049 -6.58067 -5.3214
RightLeg  -4.74333 -6.93267 5.08698
RightFoot  -1.51087 -0.65031 7.41196
RightToes  2.91037e-010 0 -3.6325e-017
Spine  7.78639 -1.64757 -2.98625
Spine1  7.82942 -2.00416 0.592984
HEad  -10.9208 3.35492 -3.34259
LeftShoulder1  7.90404 -11.5548 -45.761
LeftArm  -3.95998 -6.38755 -28.4888
LeftForeArm  25.1634 -27.8072 -4.6343
LeftHand  -0.244104 0.0205437 5.32207
RightShoulder  6.19796 9.60125 41.0912
RightArm  -6.94408 -24.3899 31.2398
RightForeArm  17.7399 3.65879 5.79793
RightHand  -0.726071 0.861845 -13.5731
LeftUpLeg  14.1863 5.70578 -3.11984
LeftLeg  10.5412 6.13092 -4.35853
LeftFoot  -21.0923 0.194076 0.780987
LeftToes  -2.38291e-010 7.29328e-011 -2.49822e-011
57
root  39.1525 38.2952 -28.1015 -134.761 -85.7335 132.2
RightUpLeg  -22.3213 -6.50811 -4.46778
RightLeg  -0.823642 -9.79991 4.61522
RightFoot  0.886389 -0.459626 4.46185
RightToes  2.91037e-010 0 -3.6325e-017
Spine  7.53371 -1.90549 -1.67351
Spine1  8.05796 -2.45177 1.16044
HEad  -11.3257 4.02037 -3.47077
LeftShoulder1  7.94197 -11.5596 -45.9724
LeftArm  -3.84588 -6.34808 -28.4703
LeftForeArm  25.2653 -27.8802 -4.64515
LeftHand  -0.244104 0.0205437 5.32207
RightShoulder  6.11387 9.47588 40.9116
RightArm  -7.77492 -23.6046 30.5736
RightForeArm  16.9514 3.20069 5.54039
RightHand  -0.736812 0.879156 -13.7325
LeftUpLeg  16.5711 6.94522 -1.89838
LeftLeg  11.5288 4.56734 -3.47639
LeftFoot  -21.7581 0.134368 0.0523211
LeftToes  -2.38291e-010 7.29328e-011 -2.49822e-011
58
root  37.3867 38.0772 -28.227 -148.203 -86.8336 145.451
RightUpLeg  -24.1146 -8.48704 -2.1313
RightLeg  6.86473 -10.6397 2.78806
RightFoot  5.59774 -0.00837856 0.344332
RightToes  2.91037e-010 0 -3.6325e-017
Spine  7.31922 -2.43476 0.787935
Spine1  8.20986 -2.94578 1.17185
HEad  -11.5349 4.5168 -4.08518
LeftShoulder1  8.0906 -11.6262 -46.6447
LeftArm  -4.38813 -4.94961 -28.1327
LeftForeArm  25.489 -28.2383 -4.71345
LeftHand  -0.244104 0.0205437 5.32207
RightShoulder  6.0376 9.32073 40.8881
RightArm  -8.06865 -22.1378 29.7443
RightForeArm  15.8324 3.34649 5.53161
RightHand  -0.782876 1.11751 -14.0642
LeftUpLeg  18.6175 9.21673 0.424088
LeftLeg  13.98 1.73721 -1.91361
LeftFoot  -21.9673 -0.079792 -2.23625
LeftToes  -2.38291e-010 7.29328e-011 -2.49822e-011
59
root  35.5459 37.9643 -28.3431 177.752 -86.9549 179.201
RightUpLeg  -25.6776 -13.6635 2.6974
RightLeg  13.8923 -4.89959 0.389582
RightFoot  9.00314 0.627067 -3.19999
RightToes  2.91037e-010 0 -3.6325e-017
Spine  7.15584 -2.81717 4.48452
Spine1  8.29133 -3.02344 0.597057
HEad  -11.1675 4.98998 -5.12963
LeftShoulder1  8.30997 -11.7584 -47.514
LeftArm  -5.11425 -2.10301 -27.798
LeftForeArm  25.6151 -28.488 -4.76264
LeftHand  -0.244104 0.0205437 5.32207
RightShoulder  6.00652 9.24666 40.9159
RightArm  -8.22007 -20.3199 29.0615
RightForeArm  14.7052 3.92483 5.62305
RightHand  -0.835235 1.40898 -14.3715
LeftUpLeg  20.0696 11.2488 3.32318
LeftLeg  17.6639 -0.472814 -0.371098
LeftFoot  -20.5824 -0.434536 -7.09617
LeftToes  -2.38291e-010 7.29328e-011 -2.49822e-011
60
root  33.7259 37.9786 -28.4951 153.84 -85.3491 -156.944
RightUpLeg  -26.2972 -15.6098 6.1218
RightLeg  19.3576 -0.723518 -0.579902
RightFoot  7.97078 1.02233 -5.70845
RightToes  2.91037e-010 0 -3.6325e-017
Spine  7.01357 -2.77288 8.03291
Spine1  8.04004 -2.63688 0.117911
HEad  -10.278 5.67618 -5.97255
LeftShoulder1  8.44463 -11.8306 -48.0649
LeftArm  -5.24363 1.66356 -28.0168
LeftForeArm  25.2138 -27.8803 -4.64827
LeftHand  -0.244104 0.0205437 5.32207
RightShoulder  5.97314 9.23271 40.7176
RightArm  -8.39239 -18.4081 28.9874
RightForeArm  13.2134 4.88628 5.79666
RightHand  -0.867406 1.51419 -14.6962
LeftUpLeg  19.1589 11.1787 5.29321
LeftLeg  24.1505 0.988939 0.93102
LeftFoot  -14.8666 -0.262885 -11.6907
LeftToes  -2.38291e-010 7.29328e-011 -2.49822e-011
61
root  31.9997 38.0668 -28.7059 146.283 -84.0151 -149.052
RightUpLeg  -25.534 -14.7226 7.03626
RightLeg  23.1959 -0.73153 -0.582112
RightFoot  4.10595 0.93942 -6.67862
RightToes  2.91037e-010 0 -3.6325e-017
Spine  6.74745 -2.59794 10.3355
Spine1  7.46619 -2.22392 0.15752
HEad  -8.88597 6.11364 -6.3195
LeftShoulder1  8.42238 -11.7783 -48.1017
LeftArm  -4.20219 5.18443 -28.8669
LeftForeArm  24.2015 -26.0086 -4.27885
LeftHand  -0.244104 0.0205437 5.32207
RightShoulder  5.87598 9.14428 40.3017
RightArm  -8.27717 -16.464 29.5971
RightForeArm  10.9835 6.74134 6.20438
RightHand  -0.905454 1.58575 -15.1743
LeftUpLeg  14.6337 10.5753 6.46828
LeftLeg  34.4236 3.57422 3.01231
LeftFoot  -3.91833 0.722996 -11.5841
LeftToes  -2.38291e-010 7.29328e-011 -2.49822e-011
62
root  30.4606 38.1828 -28.92 135.659 -83.5804 -137.925
RightUpLeg  -24.179 -15.2513 7.86314
RightLeg  25.2128 -0.889345 -0.688026
RightFoot  0.639961 0.676879 -6.38986
RightToes  2.91037e-010 0 -3.6325e-017
Spine  6.47177 -2.57435 12.2212
Spine1  7.2071 -2.00583 0.514987
HEad  -7.69986 5.83029 -6.10305
LeftShoulder1  8.35917 -11.704 -47.9723
LeftArm  -2.31354 7.53869 -29.7993
LeftForeArm  23.3216 -23.3005 -3.84785
LeftHand  -0.244104 0.0205437 5.32207
RightShoulder  5.77114 8.9906 40.0491
RightArm  -6.61674 -14.5244 30.3936
RightForeArm  7.3588 10.3587 6.68369
RightHand  -0.973851 1.86532 -15.6936
LeftUpLeg  7.68474 9.34771 7.24045
LeftLeg  45.7076 4.83097 5.67375
LeftFoot  6.97428 1.1298 -7.23032
LeftToes  -2.38291e-010 7.29328e-011 -2.49822e-011
63
root  29.0284 38.3969 -29.1047 124.707 -83.5099 -126.77
RightUpLeg  -22.0641 -16.26 8.22391
RightLeg  25.8338 -0.839753 -0.687549
RightFoot  -1.61801 0.491339 -5.90202
RightToes  2.91037e-010 0 -3.6325e-017
Spine  6.42585 -2.51172 13.8184
Spine1  7.41747 -1.71219 0.647824
HEad  -7.22958 4.90895 -5.64749
LeftShoulder1  8.40108 -11.7339 -48.1197
LeftArm  -1.2711 8.94825 -30.203
LeftForeArm  23.9843 -20.6211 -3.92776
LeftHand  -0.244104 0.0205437 5.32207
RightShoulder  5.77173 8.95618 40.1735
RightArm  -1.65522 -12.6851 30.9614
RightForeArm  1.06433 16.0516 6.22799
RightHand  -1.03673 2.14517 -16.0886
LeftUpLeg  0.765 7.9344 7.50328
LeftLeg  54.9295 4.77096 7.7384
LeftFoot  10.6976 0.625997 -3.44995
LeftToes  -2.38291e-010 7.29328e-011 -2.49822e-011
64
root  27.5829 38.7914 -29.2829 122.53 -83.8222 -124.801
RightUpLeg  -18.6521 -17.2445 7.35116
RightLeg  24.8168 -0.154497 -0.286753
RightFoot  -3.28353 0.360228 -5.41716
RightToes  2.91037e-010 0 -3.6325e-017
Spine  6.65805 -2.12386 14.173
Spine1  7.61193 -1.144 0.30866
HEad  -7.10023 3.43293 -5.20045
LeftShoulder1  8.52047 -11.8367 -48.4808
LeftArm  -1.71373 10.3429 -30.0876
LeftForeArm  25.6178 -18.5367 -4.40569
LeftHand  -0.244104 0.0205437 5.32207
RightShoulder  5.86215 9.08724 40.3973
RightArm  2.70839 -10.9378 31.3386
RightForeArm  -3.91308 22.4233 5.27359
RightHand  -1.06807 2.12941 -16.5969
LeftUpLeg  -4.97322 7.3693 6.75931
LeftLeg  60.3989 4.34024 8.77116
LeftFoot  8.10612 0.29725 -2.04434
LeftToes  -2.38291e-010 7.29328e-011 -2.49822e-011
